<?xml version="1.0" encoding="UTF-8"?>
<svg xmlns="http://www.w3.org/2000/svg" xmlns:xlink="http://www.w3.org/1999/xlink" width="400pt" height="300pt" viewBox="0 0 400 300" version="1.1">
<g id="surface1">
<path style="fill-rule:nonzero;fill:rgb(96.078431%,82.352941%,28.235294%);fill-opacity:1;stroke-width:2;stroke-linecap:butt;stroke-linejoin:miter;stroke:rgb(100%,100%,100%);stroke-opacity:1;stroke-miterlimit:10;" d="M 80 10 L 120 10 L 120 22 L 80 22 Z M 80 10 "/>
<path style=" stroke:none;fill-rule:nonzero;fill:rgb(40%,40%,40%);fill-opacity:1;" d="M 128.710938 15.589844 L 128.710938 13.019531 L 130.175781 13.019531 C 130.390625 13.019531 130.601562 13.035156 130.800781 13.070312 C 131 13.101562 131.175781 13.164062 131.328125 13.253906 C 131.480469 13.347656 131.601562 13.476562 131.695312 13.644531 C 131.785156 13.8125 131.832031 14.03125 131.832031 14.304688 C 131.832031 14.578125 131.785156 14.796875 131.695312 14.964844 C 131.601562 15.132812 131.480469 15.261719 131.328125 15.355469 C 131.175781 15.445312 131 15.507812 130.800781 15.539062 C 130.601562 15.574219 130.390625 15.589844 130.175781 15.589844 Z M 126.828125 11.558594 L 126.828125 20.125 L 128.710938 20.125 L 128.710938 17.054688 L 130.691406 17.054688 C 131.226562 17.054688 131.683594 16.976562 132.058594 16.820312 C 132.433594 16.664062 132.742188 16.457031 132.976562 16.199219 C 133.214844 15.945312 133.386719 15.652344 133.492188 15.320312 C 133.601562 14.988281 133.65625 14.648438 133.65625 14.304688 C 133.65625 13.953125 133.601562 13.613281 133.492188 13.285156 C 133.386719 12.957031 133.214844 12.664062 132.976562 12.410156 C 132.742188 12.152344 132.4375 11.945312 132.058594 11.789062 C 131.683594 11.632812 131.226562 11.558594 130.691406 11.558594 Z M 136.160156 17.027344 C 136.160156 16.78125 136.183594 16.535156 136.230469 16.296875 C 136.28125 16.058594 136.363281 15.84375 136.476562 15.660156 C 136.59375 15.476562 136.746094 15.328125 136.941406 15.210938 C 137.132812 15.09375 137.371094 15.035156 137.660156 15.035156 C 137.949219 15.035156 138.191406 15.09375 138.386719 15.210938 C 138.582031 15.328125 138.738281 15.476562 138.855469 15.660156 C 138.96875 15.84375 139.050781 16.058594 139.101562 16.296875 C 139.148438 16.535156 139.171875 16.78125 139.171875 17.027344 C 139.171875 17.277344 139.148438 17.519531 139.101562 17.753906 C 139.050781 17.992188 138.96875 18.203125 138.855469 18.390625 C 138.738281 18.578125 138.582031 18.730469 138.386719 18.839844 C 138.191406 18.953125 137.949219 19.007812 137.660156 19.007812 C 137.371094 19.007812 137.132812 18.953125 136.941406 18.839844 C 136.75 18.730469 136.59375 18.578125 136.476562 18.390625 C 136.363281 18.203125 136.28125 17.992188 136.230469 17.753906 C 136.183594 17.519531 136.160156 17.277344 136.160156 17.027344 Z M 134.457031 17.027344 C 134.457031 17.523438 134.53125 17.972656 134.683594 18.371094 C 134.835938 18.773438 135.050781 19.113281 135.332031 19.398438 C 135.613281 19.683594 135.949219 19.902344 136.339844 20.054688 C 136.730469 20.207031 137.171875 20.28125 137.660156 20.28125 C 138.148438 20.28125 138.589844 20.203125 138.984375 20.054688 C 139.382812 19.902344 139.71875 19.683594 140 19.398438 C 140.28125 19.113281 140.496094 18.773438 140.648438 18.371094 C 140.800781 17.972656 140.875 17.523438 140.875 17.027344 C 140.875 16.53125 140.800781 16.082031 140.648438 15.679688 C 140.496094 15.273438 140.28125 14.929688 140 14.648438 C 139.71875 14.363281 139.382812 14.144531 138.984375 13.988281 C 138.589844 13.832031 138.148438 13.753906 137.660156 13.753906 C 137.171875 13.753906 136.730469 13.832031 136.339844 13.988281 C 135.949219 14.144531 135.613281 14.363281 135.332031 14.648438 C 135.050781 14.929688 134.835938 15.273438 134.683594 15.679688 C 134.53125 16.082031 134.457031 16.53125 134.457031 17.027344 Z M 148.738281 20.125 L 150.695312 13.921875 L 148.945312 13.921875 L 147.804688 18.121094 L 147.78125 18.121094 L 146.722656 13.921875 L 145.066406 13.921875 L 144.035156 18.132812 L 144.011719 18.132812 L 142.871094 13.921875 L 141.070312 13.921875 L 143.039062 20.125 L 144.804688 20.125 L 145.859375 15.960938 L 145.882812 15.960938 L 146.988281 20.125 Z M 155.824219 16.355469 L 153.050781 16.355469 C 153.058594 16.238281 153.085938 16.101562 153.128906 15.949219 C 153.171875 15.796875 153.25 15.652344 153.359375 15.515625 C 153.464844 15.378906 153.609375 15.265625 153.789062 15.175781 C 153.96875 15.082031 154.195312 15.035156 154.46875 15.035156 C 154.882812 15.035156 155.195312 15.148438 155.398438 15.371094 C 155.601562 15.597656 155.742188 15.925781 155.824219 16.355469 Z M 153.050781 17.4375 L 157.527344 17.4375 C 157.558594 16.957031 157.519531 16.496094 157.40625 16.058594 C 157.296875 15.617188 157.113281 15.226562 156.863281 14.882812 C 156.609375 14.539062 156.289062 14.261719 155.894531 14.058594 C 155.503906 13.855469 155.042969 13.753906 154.515625 13.753906 C 154.042969 13.753906 153.613281 13.835938 153.226562 14.003906 C 152.839844 14.171875 152.503906 14.402344 152.222656 14.695312 C 151.945312 14.988281 151.726562 15.332031 151.574219 15.734375 C 151.421875 16.132812 151.347656 16.566406 151.347656 17.027344 C 151.347656 17.507812 151.421875 17.949219 151.570312 18.347656 C 151.71875 18.75 151.929688 19.09375 152.199219 19.382812 C 152.472656 19.667969 152.804688 19.890625 153.195312 20.046875 C 153.585938 20.203125 154.027344 20.28125 154.515625 20.28125 C 155.21875 20.28125 155.820312 20.121094 156.316406 19.800781 C 156.8125 19.480469 157.179688 18.949219 157.421875 18.203125 L 155.921875 18.203125 C 155.863281 18.394531 155.710938 18.578125 155.464844 18.75 C 155.214844 18.921875 154.921875 19.007812 154.574219 19.007812 C 154.09375 19.007812 153.726562 18.886719 153.472656 18.636719 C 153.214844 18.390625 153.074219 17.988281 153.050781 17.4375 Z M 158.648438 13.921875 L 158.648438 20.125 L 160.351562 20.125 L 160.351562 17.328125 C 160.351562 17.046875 160.378906 16.789062 160.4375 16.550781 C 160.492188 16.308594 160.585938 16.097656 160.71875 15.917969 C 160.851562 15.738281 161.023438 15.597656 161.238281 15.492188 C 161.457031 15.390625 161.71875 15.335938 162.03125 15.335938 C 162.136719 15.335938 162.242188 15.34375 162.355469 15.355469 C 162.46875 15.367188 162.5625 15.382812 162.644531 15.398438 L 162.644531 13.8125 C 162.507812 13.773438 162.382812 13.753906 162.273438 13.753906 C 162.054688 13.753906 161.847656 13.785156 161.648438 13.847656 C 161.449219 13.914062 161.261719 14.003906 161.085938 14.117188 C 160.910156 14.234375 160.753906 14.375 160.617188 14.539062 C 160.480469 14.703125 160.371094 14.882812 160.292969 15.074219 L 160.269531 15.074219 L 160.269531 13.921875 Z M 163.695312 11.558594 L 163.695312 20.125 L 165.398438 20.125 L 165.398438 11.558594 Z M 168.398438 12.960938 L 168.398438 11.558594 L 166.695312 11.558594 L 166.695312 12.960938 Z M 166.695312 13.921875 L 166.695312 20.125 L 168.398438 20.125 L 168.398438 13.921875 Z M 170.019531 15.0625 L 170.019531 20.125 L 171.722656 20.125 L 171.722656 15.0625 L 172.898438 15.0625 L 172.898438 13.921875 L 171.722656 13.921875 L 171.722656 13.550781 C 171.722656 13.292969 171.773438 13.109375 171.875 13.003906 C 171.972656 12.894531 172.140625 12.839844 172.371094 12.839844 C 172.585938 12.839844 172.796875 12.851562 172.996094 12.878906 L 172.996094 11.605469 C 172.851562 11.597656 172.703125 11.585938 172.550781 11.574219 C 172.398438 11.5625 172.246094 11.558594 172.097656 11.558594 C 171.402344 11.558594 170.878906 11.734375 170.535156 12.085938 C 170.191406 12.4375 170.019531 12.890625 170.019531 13.441406 L 170.019531 13.921875 L 169 13.921875 L 169 15.0625 Z M 175.808594 13.921875 L 175.808594 12.0625 L 174.105469 12.0625 L 174.105469 13.921875 L 173.070312 13.921875 L 173.070312 15.0625 L 174.105469 15.0625 L 174.105469 18.722656 C 174.105469 19.035156 174.15625 19.285156 174.261719 19.476562 C 174.363281 19.667969 174.507812 19.816406 174.6875 19.921875 C 174.867188 20.023438 175.074219 20.09375 175.308594 20.132812 C 175.546875 20.167969 175.796875 20.183594 176.058594 20.183594 C 176.226562 20.183594 176.398438 20.179688 176.574219 20.171875 C 176.75 20.164062 176.910156 20.148438 177.054688 20.125 L 177.054688 18.804688 C 176.976562 18.820312 176.890625 18.832031 176.804688 18.839844 C 176.714844 18.847656 176.625 18.851562 176.527344 18.851562 C 176.238281 18.851562 176.046875 18.804688 175.953125 18.710938 C 175.855469 18.613281 175.808594 18.421875 175.808594 18.132812 L 175.808594 15.0625 L 177.054688 15.0625 L 177.054688 13.921875 Z M 179.398438 12.960938 L 179.398438 11.558594 L 177.695312 11.558594 L 177.695312 12.960938 Z M 177.695312 13.921875 L 177.695312 20.125 L 179.398438 20.125 L 179.398438 13.921875 Z M 180.648438 13.921875 L 180.648438 20.125 L 182.351562 20.125 L 182.351562 16.871094 C 182.351562 16.242188 182.457031 15.785156 182.664062 15.511719 C 182.871094 15.234375 183.207031 15.097656 183.671875 15.097656 C 184.078125 15.097656 184.363281 15.222656 184.523438 15.476562 C 184.683594 15.726562 184.765625 16.109375 184.765625 16.621094 L 184.765625 20.125 L 186.46875 20.125 L 186.46875 16.308594 C 186.46875 15.925781 186.433594 15.574219 186.367188 15.257812 C 186.296875 14.941406 186.179688 14.675781 186.011719 14.453125 C 185.84375 14.234375 185.613281 14.0625 185.320312 13.9375 C 185.03125 13.816406 184.65625 13.753906 184.199219 13.753906 C 183.839844 13.753906 183.488281 13.835938 183.144531 14 C 182.800781 14.164062 182.519531 14.425781 182.304688 14.785156 L 182.269531 14.785156 L 182.269531 13.921875 Z M 190.539062 18.660156 C 190.277344 18.660156 190.054688 18.605469 189.878906 18.492188 C 189.703125 18.378906 189.5625 18.238281 189.453125 18.0625 C 189.347656 17.886719 189.269531 17.6875 189.226562 17.46875 C 189.183594 17.246094 189.160156 17.023438 189.160156 16.800781 C 189.160156 16.570312 189.1875 16.347656 189.238281 16.136719 C 189.289062 15.921875 189.375 15.734375 189.488281 15.570312 C 189.605469 15.40625 189.75 15.277344 189.921875 15.179688 C 190.09375 15.085938 190.300781 15.035156 190.539062 15.035156 C 190.820312 15.035156 191.050781 15.089844 191.234375 15.191406 C 191.417969 15.296875 191.566406 15.4375 191.679688 15.613281 C 191.792969 15.789062 191.871094 15.992188 191.921875 16.21875 C 191.96875 16.445312 191.992188 16.6875 191.992188 16.945312 C 191.992188 17.167969 191.960938 17.382812 191.902344 17.585938 C 191.84375 17.789062 191.753906 17.972656 191.632812 18.132812 C 191.511719 18.292969 191.359375 18.421875 191.175781 18.515625 C 190.992188 18.613281 190.78125 18.660156 190.539062 18.660156 Z M 193.613281 19.730469 L 193.613281 13.921875 L 191.992188 13.921875 L 191.992188 14.75 L 191.96875 14.75 C 191.761719 14.390625 191.503906 14.132812 191.195312 13.980469 C 190.886719 13.828125 190.527344 13.753906 190.121094 13.753906 C 189.6875 13.753906 189.304688 13.835938 188.972656 14.003906 C 188.640625 14.171875 188.363281 14.398438 188.140625 14.683594 C 187.917969 14.96875 187.746094 15.296875 187.628906 15.667969 C 187.511719 16.039062 187.457031 16.425781 187.457031 16.824219 C 187.457031 17.25 187.507812 17.652344 187.605469 18.03125 C 187.707031 18.410156 187.863281 18.742188 188.078125 19.027344 C 188.296875 19.3125 188.570312 19.535156 188.90625 19.699219 C 189.242188 19.863281 189.644531 19.945312 190.109375 19.945312 C 190.484375 19.945312 190.84375 19.867188 191.183594 19.710938 C 191.523438 19.554688 191.785156 19.3125 191.96875 18.984375 L 191.992188 18.984375 L 191.992188 19.800781 C 192 20.242188 191.894531 20.605469 191.675781 20.894531 C 191.453125 21.179688 191.105469 21.324219 190.625 21.324219 C 190.320312 21.324219 190.050781 21.261719 189.820312 21.140625 C 189.589844 21.015625 189.433594 20.792969 189.351562 20.472656 L 187.660156 20.472656 C 187.683594 20.824219 187.78125 21.128906 187.953125 21.378906 C 188.125 21.632812 188.34375 21.835938 188.601562 21.996094 C 188.863281 22.15625 189.148438 22.273438 189.464844 22.351562 C 189.78125 22.425781 190.09375 22.464844 190.394531 22.464844 C 191.109375 22.464844 191.675781 22.367188 192.101562 22.175781 C 192.523438 21.984375 192.847656 21.75 193.070312 21.476562 C 193.296875 21.199219 193.441406 20.902344 193.511719 20.582031 C 193.578125 20.261719 193.613281 19.976562 193.613281 19.730469 Z M 126 8.125 "/>
<path style="fill-rule:nonzero;fill:rgb(89.019608%,54.509804%,51.764706%);fill-opacity:1;stroke-width:2;stroke-linecap:butt;stroke-linejoin:miter;stroke:rgb(100%,100%,100%);stroke-opacity:1;stroke-miterlimit:10;" d="M 219 10 L 259 10 L 259 22 L 219 22 Z M 219 10 "/>
<path style=" stroke:none;fill-rule:nonzero;fill:rgb(40%,40%,40%);fill-opacity:1;" d="M 271.539062 14.4375 L 273.363281 14.4375 C 273.308594 13.941406 273.171875 13.5 272.957031 13.117188 C 272.742188 12.734375 272.464844 12.410156 272.132812 12.152344 C 271.800781 11.890625 271.425781 11.691406 271.007812 11.558594 C 270.585938 11.421875 270.140625 11.351562 269.667969 11.351562 C 269.011719 11.351562 268.421875 11.46875 267.898438 11.699219 C 267.375 11.933594 266.933594 12.253906 266.570312 12.660156 C 266.210938 13.070312 265.9375 13.546875 265.742188 14.09375 C 265.550781 14.644531 265.457031 15.238281 265.457031 15.878906 C 265.457031 16.5 265.550781 17.082031 265.742188 17.621094 C 265.933594 18.164062 266.210938 18.632812 266.570312 19.03125 C 266.929688 19.433594 267.375 19.746094 267.898438 19.976562 C 268.421875 20.203125 269.011719 20.316406 269.667969 20.316406 C 270.195312 20.316406 270.679688 20.238281 271.121094 20.078125 C 271.558594 19.917969 271.945312 19.683594 272.273438 19.382812 C 272.601562 19.078125 272.863281 18.710938 273.0625 18.277344 C 273.261719 17.84375 273.386719 17.359375 273.4375 16.824219 L 271.613281 16.824219 C 271.539062 17.402344 271.34375 17.863281 271.019531 18.21875 C 270.695312 18.570312 270.242188 18.746094 269.667969 18.746094 C 269.242188 18.746094 268.882812 18.664062 268.589844 18.5 C 268.292969 18.335938 268.050781 18.117188 267.867188 17.84375 C 267.683594 17.574219 267.550781 17.265625 267.464844 16.925781 C 267.382812 16.585938 267.339844 16.238281 267.339844 15.878906 C 267.339844 15.5 267.382812 15.136719 267.464844 14.785156 C 267.550781 14.433594 267.683594 14.117188 267.867188 13.84375 C 268.050781 13.566406 268.292969 13.347656 268.589844 13.183594 C 268.882812 13.019531 269.242188 12.9375 269.667969 12.9375 C 269.898438 12.9375 270.121094 12.976562 270.335938 13.050781 C 270.546875 13.125 270.734375 13.234375 270.902344 13.367188 C 271.070312 13.503906 271.210938 13.664062 271.324219 13.84375 C 271.4375 14.023438 271.507812 14.222656 271.539062 14.4375 Z M 276.160156 17.027344 C 276.160156 16.78125 276.183594 16.535156 276.230469 16.296875 C 276.28125 16.058594 276.363281 15.84375 276.476562 15.660156 C 276.59375 15.476562 276.746094 15.328125 276.941406 15.210938 C 277.132812 15.09375 277.371094 15.035156 277.660156 15.035156 C 277.949219 15.035156 278.191406 15.09375 278.386719 15.210938 C 278.582031 15.328125 278.738281 15.476562 278.855469 15.660156 C 278.96875 15.84375 279.050781 16.058594 279.101562 16.296875 C 279.148438 16.535156 279.171875 16.78125 279.171875 17.027344 C 279.171875 17.277344 279.148438 17.519531 279.101562 17.753906 C 279.050781 17.992188 278.96875 18.203125 278.855469 18.390625 C 278.738281 18.578125 278.582031 18.730469 278.386719 18.839844 C 278.191406 18.953125 277.949219 19.007812 277.660156 19.007812 C 277.371094 19.007812 277.132812 18.953125 276.941406 18.839844 C 276.75 18.730469 276.59375 18.578125 276.476562 18.390625 C 276.363281 18.203125 276.28125 17.992188 276.230469 17.753906 C 276.183594 17.519531 276.160156 17.277344 276.160156 17.027344 Z M 274.457031 17.027344 C 274.457031 17.523438 274.53125 17.972656 274.683594 18.371094 C 274.835938 18.773438 275.050781 19.113281 275.332031 19.398438 C 275.613281 19.683594 275.949219 19.902344 276.339844 20.054688 C 276.730469 20.207031 277.171875 20.28125 277.660156 20.28125 C 278.148438 20.28125 278.589844 20.203125 278.984375 20.054688 C 279.382812 19.902344 279.71875 19.683594 280 19.398438 C 280.28125 19.113281 280.496094 18.773438 280.648438 18.371094 C 280.800781 17.972656 280.875 17.523438 280.875 17.027344 C 280.875 16.53125 280.800781 16.082031 280.648438 15.679688 C 280.496094 15.273438 280.28125 14.929688 280 14.648438 C 279.71875 14.363281 279.382812 14.144531 278.984375 13.988281 C 278.589844 13.832031 278.148438 13.753906 277.660156 13.753906 C 277.171875 13.753906 276.730469 13.832031 276.339844 13.988281 C 275.949219 14.144531 275.613281 14.363281 275.332031 14.648438 C 275.050781 14.929688 274.835938 15.273438 274.683594 15.679688 C 274.53125 16.082031 274.457031 16.53125 274.457031 17.027344 Z M 286.050781 17.003906 C 286.050781 17.261719 286.027344 17.507812 285.980469 17.75 C 285.933594 17.988281 285.851562 18.203125 285.738281 18.390625 C 285.628906 18.578125 285.476562 18.730469 285.289062 18.839844 C 285.101562 18.953125 284.867188 19.007812 284.589844 19.007812 C 284.324219 19.007812 284.097656 18.949219 283.910156 18.835938 C 283.722656 18.71875 283.566406 18.566406 283.441406 18.378906 C 283.316406 18.191406 283.226562 17.976562 283.171875 17.738281 C 283.117188 17.496094 283.089844 17.257812 283.089844 17.015625 C 283.089844 16.761719 283.113281 16.515625 283.164062 16.277344 C 283.21875 16.042969 283.300781 15.832031 283.417969 15.648438 C 283.535156 15.464844 283.6875 15.316406 283.878906 15.203125 C 284.070312 15.09375 284.308594 15.035156 284.589844 15.035156 C 284.867188 15.035156 285.101562 15.09375 285.285156 15.203125 C 285.46875 15.316406 285.617188 15.464844 285.734375 15.644531 C 285.851562 15.824219 285.933594 16.03125 285.980469 16.265625 C 286.027344 16.503906 286.050781 16.75 286.050781 17.003906 Z M 286.074219 19.332031 L 286.074219 20.125 L 287.695312 20.125 L 287.695312 11.558594 L 285.992188 11.558594 L 285.992188 14.675781 L 285.96875 14.675781 C 285.777344 14.371094 285.515625 14.144531 285.183594 13.988281 C 284.851562 13.832031 284.5 13.753906 284.132812 13.753906 C 283.675781 13.753906 283.277344 13.84375 282.933594 14.023438 C 282.589844 14.203125 282.300781 14.441406 282.074219 14.738281 C 281.847656 15.035156 281.675781 15.375 281.558594 15.761719 C 281.441406 16.152344 281.382812 16.554688 281.382812 16.96875 C 281.382812 17.402344 281.441406 17.816406 281.558594 18.21875 C 281.675781 18.617188 281.847656 18.972656 282.074219 19.277344 C 282.300781 19.585938 282.59375 19.832031 282.945312 20.011719 C 283.296875 20.191406 283.703125 20.28125 284.167969 20.28125 C 284.574219 20.28125 284.941406 20.207031 285.265625 20.058594 C 285.589844 19.910156 285.851562 19.667969 286.050781 19.332031 Z M 290.398438 12.960938 L 290.398438 11.558594 L 288.695312 11.558594 L 288.695312 12.960938 Z M 288.695312 13.921875 L 288.695312 20.125 L 290.398438 20.125 L 290.398438 13.921875 Z M 291.648438 13.921875 L 291.648438 20.125 L 293.351562 20.125 L 293.351562 16.871094 C 293.351562 16.242188 293.457031 15.785156 293.664062 15.511719 C 293.871094 15.234375 294.207031 15.097656 294.671875 15.097656 C 295.078125 15.097656 295.363281 15.222656 295.523438 15.476562 C 295.683594 15.726562 295.765625 16.109375 295.765625 16.621094 L 295.765625 20.125 L 297.46875 20.125 L 297.46875 16.308594 C 297.46875 15.925781 297.433594 15.574219 297.367188 15.257812 C 297.296875 14.941406 297.179688 14.675781 297.011719 14.453125 C 296.84375 14.234375 296.613281 14.0625 296.320312 13.9375 C 296.03125 13.816406 295.65625 13.753906 295.199219 13.753906 C 294.839844 13.753906 294.488281 13.835938 294.144531 14 C 293.800781 14.164062 293.519531 14.425781 293.304688 14.785156 L 293.269531 14.785156 L 293.269531 13.921875 Z M 301.539062 18.660156 C 301.277344 18.660156 301.054688 18.605469 300.878906 18.492188 C 300.703125 18.378906 300.5625 18.238281 300.453125 18.0625 C 300.347656 17.886719 300.269531 17.6875 300.226562 17.46875 C 300.183594 17.246094 300.160156 17.023438 300.160156 16.800781 C 300.160156 16.570312 300.1875 16.347656 300.238281 16.136719 C 300.289062 15.921875 300.375 15.734375 300.488281 15.570312 C 300.605469 15.40625 300.75 15.277344 300.921875 15.179688 C 301.09375 15.085938 301.300781 15.035156 301.539062 15.035156 C 301.820312 15.035156 302.050781 15.089844 302.234375 15.191406 C 302.417969 15.296875 302.566406 15.4375 302.679688 15.613281 C 302.792969 15.789062 302.871094 15.992188 302.921875 16.21875 C 302.96875 16.445312 302.992188 16.6875 302.992188 16.945312 C 302.992188 17.167969 302.960938 17.382812 302.902344 17.585938 C 302.84375 17.789062 302.753906 17.972656 302.632812 18.132812 C 302.511719 18.292969 302.359375 18.421875 302.175781 18.515625 C 301.992188 18.613281 301.78125 18.660156 301.539062 18.660156 Z M 304.613281 19.730469 L 304.613281 13.921875 L 302.992188 13.921875 L 302.992188 14.75 L 302.96875 14.75 C 302.761719 14.390625 302.503906 14.132812 302.195312 13.980469 C 301.886719 13.828125 301.527344 13.753906 301.121094 13.753906 C 300.6875 13.753906 300.304688 13.835938 299.972656 14.003906 C 299.640625 14.171875 299.363281 14.398438 299.140625 14.683594 C 298.917969 14.96875 298.746094 15.296875 298.628906 15.667969 C 298.511719 16.039062 298.457031 16.425781 298.457031 16.824219 C 298.457031 17.25 298.507812 17.652344 298.605469 18.03125 C 298.707031 18.410156 298.863281 18.742188 299.078125 19.027344 C 299.296875 19.3125 299.570312 19.535156 299.90625 19.699219 C 300.242188 19.863281 300.644531 19.945312 301.109375 19.945312 C 301.484375 19.945312 301.84375 19.867188 302.183594 19.710938 C 302.523438 19.554688 302.785156 19.3125 302.96875 18.984375 L 302.992188 18.984375 L 302.992188 19.800781 C 303 20.242188 302.894531 20.605469 302.675781 20.894531 C 302.453125 21.179688 302.105469 21.324219 301.625 21.324219 C 301.320312 21.324219 301.050781 21.261719 300.820312 21.140625 C 300.589844 21.015625 300.433594 20.792969 300.351562 20.472656 L 298.660156 20.472656 C 298.683594 20.824219 298.78125 21.128906 298.953125 21.378906 C 299.125 21.632812 299.34375 21.835938 299.601562 21.996094 C 299.863281 22.15625 300.148438 22.273438 300.464844 22.351562 C 300.78125 22.425781 301.09375 22.464844 301.394531 22.464844 C 302.109375 22.464844 302.675781 22.367188 303.101562 22.175781 C 303.523438 21.984375 303.847656 21.75 304.070312 21.476562 C 304.296875 21.199219 304.441406 20.902344 304.511719 20.582031 C 304.578125 20.261719 304.613281 19.976562 304.613281 19.730469 Z M 265 8.125 "/>
<path style="fill-rule:nonzero;fill:rgb(12.54902%,36.862745%,44.313725%);fill-opacity:1;stroke-width:2;stroke-linecap:butt;stroke-linejoin:miter;stroke:rgb(100%,100%,100%);stroke-opacity:1;stroke-miterlimit:10;" d="M 20 32 L 60 32 L 60 44 L 20 44 Z M 20 32 "/>
<path style=" stroke:none;fill-rule:nonzero;fill:rgb(40%,40%,40%);fill-opacity:1;" d="M 72.539062 36.4375 L 74.363281 36.4375 C 74.308594 35.941406 74.171875 35.5 73.957031 35.117188 C 73.742188 34.734375 73.464844 34.410156 73.132812 34.152344 C 72.800781 33.890625 72.425781 33.691406 72.007812 33.558594 C 71.585938 33.421875 71.140625 33.351562 70.667969 33.351562 C 70.011719 33.351562 69.421875 33.46875 68.898438 33.699219 C 68.375 33.933594 67.933594 34.253906 67.570312 34.660156 C 67.210938 35.070312 66.9375 35.546875 66.742188 36.09375 C 66.550781 36.644531 66.457031 37.238281 66.457031 37.878906 C 66.457031 38.5 66.550781 39.082031 66.742188 39.621094 C 66.933594 40.164062 67.210938 40.632812 67.570312 41.03125 C 67.929688 41.433594 68.375 41.746094 68.898438 41.976562 C 69.421875 42.203125 70.011719 42.316406 70.667969 42.316406 C 71.195312 42.316406 71.679688 42.238281 72.121094 42.078125 C 72.558594 41.917969 72.945312 41.683594 73.273438 41.382812 C 73.601562 41.078125 73.863281 40.710938 74.0625 40.277344 C 74.261719 39.84375 74.386719 39.359375 74.4375 38.824219 L 72.613281 38.824219 C 72.539062 39.402344 72.34375 39.863281 72.019531 40.21875 C 71.695312 40.570312 71.242188 40.746094 70.667969 40.746094 C 70.242188 40.746094 69.882812 40.664062 69.589844 40.5 C 69.292969 40.335938 69.050781 40.117188 68.867188 39.84375 C 68.683594 39.574219 68.550781 39.265625 68.464844 38.925781 C 68.382812 38.585938 68.339844 38.238281 68.339844 37.878906 C 68.339844 37.5 68.382812 37.136719 68.464844 36.785156 C 68.550781 36.433594 68.683594 36.117188 68.867188 35.84375 C 69.050781 35.566406 69.292969 35.347656 69.589844 35.183594 C 69.882812 35.019531 70.242188 34.9375 70.667969 34.9375 C 70.898438 34.9375 71.121094 34.976562 71.335938 35.050781 C 71.546875 35.125 71.734375 35.234375 71.902344 35.367188 C 72.070312 35.503906 72.210938 35.664062 72.324219 35.84375 C 72.4375 36.023438 72.507812 36.222656 72.539062 36.4375 Z M 77.160156 39.027344 C 77.160156 38.78125 77.183594 38.535156 77.230469 38.296875 C 77.28125 38.058594 77.363281 37.84375 77.476562 37.660156 C 77.59375 37.476562 77.746094 37.328125 77.941406 37.210938 C 78.132812 37.09375 78.371094 37.035156 78.660156 37.035156 C 78.949219 37.035156 79.191406 37.09375 79.386719 37.210938 C 79.582031 37.328125 79.738281 37.476562 79.855469 37.660156 C 79.96875 37.84375 80.050781 38.058594 80.101562 38.296875 C 80.148438 38.535156 80.171875 38.78125 80.171875 39.027344 C 80.171875 39.277344 80.148438 39.519531 80.101562 39.753906 C 80.050781 39.992188 79.96875 40.203125 79.855469 40.390625 C 79.738281 40.578125 79.582031 40.730469 79.386719 40.839844 C 79.191406 40.953125 78.949219 41.007812 78.660156 41.007812 C 78.371094 41.007812 78.132812 40.953125 77.941406 40.839844 C 77.75 40.730469 77.59375 40.578125 77.476562 40.390625 C 77.363281 40.203125 77.28125 39.992188 77.230469 39.753906 C 77.183594 39.519531 77.160156 39.277344 77.160156 39.027344 Z M 75.457031 39.027344 C 75.457031 39.523438 75.53125 39.972656 75.683594 40.371094 C 75.835938 40.773438 76.050781 41.113281 76.332031 41.398438 C 76.613281 41.683594 76.949219 41.902344 77.339844 42.054688 C 77.730469 42.207031 78.171875 42.28125 78.660156 42.28125 C 79.148438 42.28125 79.589844 42.203125 79.984375 42.054688 C 80.382812 41.902344 80.71875 41.683594 81 41.398438 C 81.28125 41.113281 81.496094 40.773438 81.648438 40.371094 C 81.800781 39.972656 81.875 39.523438 81.875 39.027344 C 81.875 38.53125 81.800781 38.082031 81.648438 37.679688 C 81.496094 37.273438 81.28125 36.929688 81 36.648438 C 80.71875 36.363281 80.382812 36.144531 79.984375 35.988281 C 79.589844 35.832031 79.148438 35.753906 78.660156 35.753906 C 78.171875 35.753906 77.730469 35.832031 77.339844 35.988281 C 76.949219 36.144531 76.613281 36.363281 76.332031 36.648438 C 76.050781 36.929688 75.835938 37.273438 75.683594 37.679688 C 75.53125 38.082031 75.457031 38.53125 75.457031 39.027344 Z M 84.160156 39.027344 C 84.160156 38.78125 84.183594 38.535156 84.230469 38.296875 C 84.28125 38.058594 84.363281 37.84375 84.476562 37.660156 C 84.59375 37.476562 84.746094 37.328125 84.941406 37.210938 C 85.132812 37.09375 85.371094 37.035156 85.660156 37.035156 C 85.949219 37.035156 86.191406 37.09375 86.386719 37.210938 C 86.582031 37.328125 86.738281 37.476562 86.855469 37.660156 C 86.96875 37.84375 87.050781 38.058594 87.101562 38.296875 C 87.148438 38.535156 87.171875 38.78125 87.171875 39.027344 C 87.171875 39.277344 87.148438 39.519531 87.101562 39.753906 C 87.050781 39.992188 86.96875 40.203125 86.855469 40.390625 C 86.738281 40.578125 86.582031 40.730469 86.386719 40.839844 C 86.191406 40.953125 85.949219 41.007812 85.660156 41.007812 C 85.371094 41.007812 85.132812 40.953125 84.941406 40.839844 C 84.75 40.730469 84.59375 40.578125 84.476562 40.390625 C 84.363281 40.203125 84.28125 39.992188 84.230469 39.753906 C 84.183594 39.519531 84.160156 39.277344 84.160156 39.027344 Z M 82.457031 39.027344 C 82.457031 39.523438 82.53125 39.972656 82.683594 40.371094 C 82.835938 40.773438 83.050781 41.113281 83.332031 41.398438 C 83.613281 41.683594 83.949219 41.902344 84.339844 42.054688 C 84.730469 42.207031 85.171875 42.28125 85.660156 42.28125 C 86.148438 42.28125 86.589844 42.203125 86.984375 42.054688 C 87.382812 41.902344 87.71875 41.683594 88 41.398438 C 88.28125 41.113281 88.496094 40.773438 88.648438 40.371094 C 88.800781 39.972656 88.875 39.523438 88.875 39.027344 C 88.875 38.53125 88.800781 38.082031 88.648438 37.679688 C 88.496094 37.273438 88.28125 36.929688 88 36.648438 C 87.71875 36.363281 87.382812 36.144531 86.984375 35.988281 C 86.589844 35.832031 86.148438 35.753906 85.660156 35.753906 C 85.171875 35.753906 84.730469 35.832031 84.339844 35.988281 C 83.949219 36.144531 83.613281 36.363281 83.332031 36.648438 C 83.050781 36.929688 82.835938 37.273438 82.683594 37.679688 C 82.53125 38.082031 82.457031 38.53125 82.457031 39.027344 Z M 89.804688 33.558594 L 89.804688 42.125 L 91.507812 42.125 L 91.507812 39.988281 L 92.167969 39.351562 L 93.871094 42.125 L 95.9375 42.125 L 93.332031 38.199219 L 95.671875 35.921875 L 93.65625 35.921875 L 91.507812 38.152344 L 91.507812 33.558594 Z M 98.398438 34.960938 L 98.398438 33.558594 L 96.695312 33.558594 L 96.695312 34.960938 Z M 96.695312 35.921875 L 96.695312 42.125 L 98.398438 42.125 L 98.398438 35.921875 Z M 99.648438 35.921875 L 99.648438 42.125 L 101.351562 42.125 L 101.351562 38.871094 C 101.351562 38.242188 101.457031 37.785156 101.664062 37.511719 C 101.871094 37.234375 102.207031 37.097656 102.671875 37.097656 C 103.078125 37.097656 103.363281 37.222656 103.523438 37.476562 C 103.683594 37.726562 103.765625 38.109375 103.765625 38.621094 L 103.765625 42.125 L 105.46875 42.125 L 105.46875 38.308594 C 105.46875 37.925781 105.433594 37.574219 105.367188 37.257812 C 105.296875 36.941406 105.179688 36.675781 105.011719 36.453125 C 104.84375 36.234375 104.613281 36.0625 104.320312 35.9375 C 104.03125 35.816406 103.65625 35.753906 103.199219 35.753906 C 102.839844 35.753906 102.488281 35.835938 102.144531 36 C 101.800781 36.164062 101.519531 36.425781 101.304688 36.785156 L 101.269531 36.785156 L 101.269531 35.921875 Z M 109.539062 40.660156 C 109.277344 40.660156 109.054688 40.605469 108.878906 40.492188 C 108.703125 40.378906 108.5625 40.238281 108.453125 40.0625 C 108.347656 39.886719 108.269531 39.6875 108.226562 39.46875 C 108.183594 39.246094 108.160156 39.023438 108.160156 38.800781 C 108.160156 38.570312 108.1875 38.347656 108.238281 38.136719 C 108.289062 37.921875 108.375 37.734375 108.488281 37.570312 C 108.605469 37.40625 108.75 37.277344 108.921875 37.179688 C 109.09375 37.085938 109.300781 37.035156 109.539062 37.035156 C 109.820312 37.035156 110.050781 37.089844 110.234375 37.191406 C 110.417969 37.296875 110.566406 37.4375 110.679688 37.613281 C 110.792969 37.789062 110.871094 37.992188 110.921875 38.21875 C 110.96875 38.445312 110.992188 38.6875 110.992188 38.945312 C 110.992188 39.167969 110.960938 39.382812 110.902344 39.585938 C 110.84375 39.789062 110.753906 39.972656 110.632812 40.132812 C 110.511719 40.292969 110.359375 40.421875 110.175781 40.515625 C 109.992188 40.613281 109.78125 40.660156 109.539062 40.660156 Z M 112.613281 41.730469 L 112.613281 35.921875 L 110.992188 35.921875 L 110.992188 36.75 L 110.96875 36.75 C 110.761719 36.390625 110.503906 36.132812 110.195312 35.980469 C 109.886719 35.828125 109.527344 35.753906 109.121094 35.753906 C 108.6875 35.753906 108.304688 35.835938 107.972656 36.003906 C 107.640625 36.171875 107.363281 36.398438 107.140625 36.683594 C 106.917969 36.96875 106.746094 37.296875 106.628906 37.667969 C 106.511719 38.039062 106.457031 38.425781 106.457031 38.824219 C 106.457031 39.25 106.507812 39.652344 106.605469 40.03125 C 106.707031 40.410156 106.863281 40.742188 107.078125 41.027344 C 107.296875 41.3125 107.570312 41.535156 107.90625 41.699219 C 108.242188 41.863281 108.644531 41.945312 109.109375 41.945312 C 109.484375 41.945312 109.84375 41.867188 110.183594 41.710938 C 110.523438 41.554688 110.785156 41.3125 110.96875 40.984375 L 110.992188 40.984375 L 110.992188 41.800781 C 111 42.242188 110.894531 42.605469 110.675781 42.894531 C 110.453125 43.179688 110.105469 43.324219 109.625 43.324219 C 109.320312 43.324219 109.050781 43.261719 108.820312 43.140625 C 108.589844 43.015625 108.433594 42.792969 108.351562 42.472656 L 106.660156 42.472656 C 106.683594 42.824219 106.78125 43.128906 106.953125 43.378906 C 107.125 43.632812 107.34375 43.835938 107.601562 43.996094 C 107.863281 44.15625 108.148438 44.273438 108.464844 44.351562 C 108.78125 44.425781 109.09375 44.464844 109.394531 44.464844 C 110.109375 44.464844 110.675781 44.367188 111.101562 44.175781 C 111.523438 43.984375 111.847656 43.75 112.070312 43.476562 C 112.296875 43.199219 112.441406 42.902344 112.511719 42.582031 C 112.578125 42.261719 112.613281 41.976562 112.613281 41.730469 Z M 116.574219 37.828125 C 116.597656 37.429688 116.699219 37.097656 116.875 36.832031 C 117.050781 36.570312 117.277344 36.355469 117.546875 36.195312 C 117.820312 36.035156 118.125 35.921875 118.464844 35.855469 C 118.804688 35.789062 119.148438 35.753906 119.492188 35.753906 C 119.804688 35.753906 120.121094 35.773438 120.441406 35.820312 C 120.761719 35.863281 121.050781 35.949219 121.316406 36.078125 C 121.582031 36.207031 121.796875 36.382812 121.964844 36.609375 C 122.132812 36.839844 122.214844 37.140625 122.214844 37.515625 L 122.214844 40.746094 C 122.214844 41.023438 122.230469 41.292969 122.265625 41.550781 C 122.296875 41.804688 122.351562 41.996094 122.433594 42.125 L 120.703125 42.125 C 120.671875 42.027344 120.644531 41.929688 120.625 41.832031 C 120.605469 41.730469 120.59375 41.628906 120.585938 41.523438 C 120.3125 41.804688 119.992188 42 119.625 42.113281 C 119.257812 42.226562 118.878906 42.28125 118.496094 42.28125 C 118.199219 42.28125 117.925781 42.246094 117.667969 42.171875 C 117.410156 42.101562 117.1875 41.988281 116.996094 41.835938 C 116.804688 41.683594 116.652344 41.492188 116.546875 41.261719 C 116.4375 41.027344 116.382812 40.753906 116.382812 40.433594 C 116.382812 40.082031 116.445312 39.789062 116.570312 39.5625 C 116.695312 39.335938 116.855469 39.152344 117.050781 39.015625 C 117.246094 38.878906 117.46875 38.777344 117.722656 38.710938 C 117.972656 38.644531 118.226562 38.589844 118.484375 38.550781 C 118.738281 38.507812 118.992188 38.476562 119.238281 38.453125 C 119.488281 38.429688 119.707031 38.394531 119.898438 38.34375 C 120.089844 38.296875 120.242188 38.226562 120.355469 38.136719 C 120.46875 38.042969 120.519531 37.910156 120.511719 37.734375 C 120.511719 37.550781 120.480469 37.402344 120.421875 37.296875 C 120.363281 37.1875 120.28125 37.101562 120.183594 37.042969 C 120.082031 36.984375 119.964844 36.941406 119.835938 36.921875 C 119.703125 36.902344 119.558594 36.894531 119.40625 36.894531 C 119.070312 36.894531 118.808594 36.964844 118.617188 37.109375 C 118.425781 37.253906 118.3125 37.492188 118.28125 37.828125 Z M 120.511719 39.089844 C 120.441406 39.152344 120.351562 39.203125 120.242188 39.238281 C 120.132812 39.273438 120.019531 39.304688 119.894531 39.328125 C 119.769531 39.351562 119.640625 39.371094 119.503906 39.390625 C 119.367188 39.40625 119.230469 39.425781 119.097656 39.449219 C 118.96875 39.472656 118.84375 39.503906 118.71875 39.546875 C 118.59375 39.585938 118.484375 39.640625 118.394531 39.707031 C 118.300781 39.773438 118.226562 39.859375 118.171875 39.964844 C 118.117188 40.070312 118.089844 40.199219 118.089844 40.359375 C 118.089844 40.511719 118.117188 40.640625 118.171875 40.746094 C 118.226562 40.847656 118.304688 40.929688 118.398438 40.992188 C 118.496094 41.050781 118.609375 41.09375 118.734375 41.117188 C 118.863281 41.140625 118.996094 41.152344 119.132812 41.152344 C 119.46875 41.152344 119.726562 41.097656 119.910156 40.984375 C 120.09375 40.871094 120.230469 40.738281 120.320312 40.582031 C 120.40625 40.425781 120.460938 40.269531 120.480469 40.109375 C 120.5 39.949219 120.511719 39.820312 120.511719 39.726562 Z M 123.648438 35.921875 L 123.648438 42.125 L 125.351562 42.125 L 125.351562 38.871094 C 125.351562 38.242188 125.457031 37.785156 125.664062 37.511719 C 125.871094 37.234375 126.207031 37.097656 126.671875 37.097656 C 127.078125 37.097656 127.363281 37.222656 127.523438 37.476562 C 127.683594 37.726562 127.765625 38.109375 127.765625 38.621094 L 127.765625 42.125 L 129.46875 42.125 L 129.46875 38.308594 C 129.46875 37.925781 129.433594 37.574219 129.367188 37.257812 C 129.296875 36.941406 129.179688 36.675781 129.011719 36.453125 C 128.84375 36.234375 128.613281 36.0625 128.320312 35.9375 C 128.03125 35.816406 127.65625 35.753906 127.199219 35.753906 C 126.839844 35.753906 126.488281 35.835938 126.144531 36 C 125.800781 36.164062 125.519531 36.425781 125.304688 36.785156 L 125.269531 36.785156 L 125.269531 35.921875 Z M 135.050781 39.003906 C 135.050781 39.261719 135.027344 39.507812 134.980469 39.75 C 134.933594 39.988281 134.851562 40.203125 134.738281 40.390625 C 134.628906 40.578125 134.476562 40.730469 134.289062 40.839844 C 134.101562 40.953125 133.867188 41.007812 133.589844 41.007812 C 133.324219 41.007812 133.097656 40.949219 132.910156 40.835938 C 132.722656 40.71875 132.566406 40.566406 132.441406 40.378906 C 132.316406 40.191406 132.226562 39.976562 132.171875 39.738281 C 132.117188 39.496094 132.089844 39.257812 132.089844 39.015625 C 132.089844 38.761719 132.113281 38.515625 132.164062 38.277344 C 132.21875 38.042969 132.300781 37.832031 132.417969 37.648438 C 132.535156 37.464844 132.6875 37.316406 132.878906 37.203125 C 133.070312 37.09375 133.308594 37.035156 133.589844 37.035156 C 133.867188 37.035156 134.101562 37.09375 134.285156 37.203125 C 134.46875 37.316406 134.617188 37.464844 134.734375 37.644531 C 134.851562 37.824219 134.933594 38.03125 134.980469 38.265625 C 135.027344 38.503906 135.050781 38.75 135.050781 39.003906 Z M 135.074219 41.332031 L 135.074219 42.125 L 136.695312 42.125 L 136.695312 33.558594 L 134.992188 33.558594 L 134.992188 36.675781 L 134.96875 36.675781 C 134.777344 36.371094 134.515625 36.144531 134.183594 35.988281 C 133.851562 35.832031 133.5 35.753906 133.132812 35.753906 C 132.675781 35.753906 132.277344 35.84375 131.933594 36.023438 C 131.589844 36.203125 131.300781 36.441406 131.074219 36.738281 C 130.847656 37.035156 130.675781 37.375 130.558594 37.761719 C 130.441406 38.152344 130.382812 38.554688 130.382812 38.96875 C 130.382812 39.402344 130.441406 39.816406 130.558594 40.21875 C 130.675781 40.617188 130.847656 40.972656 131.074219 41.277344 C 131.300781 41.585938 131.59375 41.832031 131.945312 42.011719 C 132.296875 42.191406 132.703125 42.28125 133.167969 42.28125 C 133.574219 42.28125 133.941406 42.207031 134.265625 42.058594 C 134.589844 41.910156 134.851562 41.667969 135.050781 41.332031 Z M 144.824219 38.355469 L 142.050781 38.355469 C 142.058594 38.238281 142.085938 38.101562 142.128906 37.949219 C 142.171875 37.796875 142.25 37.652344 142.359375 37.515625 C 142.464844 37.378906 142.609375 37.265625 142.789062 37.175781 C 142.96875 37.082031 143.195312 37.035156 143.46875 37.035156 C 143.882812 37.035156 144.195312 37.148438 144.398438 37.371094 C 144.601562 37.597656 144.742188 37.925781 144.824219 38.355469 Z M 142.050781 39.4375 L 146.527344 39.4375 C 146.558594 38.957031 146.519531 38.496094 146.40625 38.058594 C 146.296875 37.617188 146.113281 37.226562 145.863281 36.882812 C 145.609375 36.539062 145.289062 36.261719 144.894531 36.058594 C 144.503906 35.855469 144.042969 35.753906 143.515625 35.753906 C 143.042969 35.753906 142.613281 35.835938 142.226562 36.003906 C 141.839844 36.171875 141.503906 36.402344 141.222656 36.695312 C 140.945312 36.988281 140.726562 37.332031 140.574219 37.734375 C 140.421875 38.132812 140.347656 38.566406 140.347656 39.027344 C 140.347656 39.507812 140.421875 39.949219 140.570312 40.347656 C 140.71875 40.75 140.929688 41.09375 141.199219 41.382812 C 141.472656 41.667969 141.804688 41.890625 142.195312 42.046875 C 142.585938 42.203125 143.027344 42.28125 143.515625 42.28125 C 144.21875 42.28125 144.820312 42.121094 145.316406 41.800781 C 145.8125 41.480469 146.179688 40.949219 146.421875 40.203125 L 144.921875 40.203125 C 144.863281 40.394531 144.710938 40.578125 144.464844 40.75 C 144.214844 40.921875 143.921875 41.007812 143.574219 41.007812 C 143.09375 41.007812 142.726562 40.886719 142.472656 40.636719 C 142.214844 40.390625 142.074219 39.988281 142.050781 39.4375 Z M 147.574219 37.828125 C 147.597656 37.429688 147.699219 37.097656 147.875 36.832031 C 148.050781 36.570312 148.277344 36.355469 148.546875 36.195312 C 148.820312 36.035156 149.125 35.921875 149.464844 35.855469 C 149.804688 35.789062 150.148438 35.753906 150.492188 35.753906 C 150.804688 35.753906 151.121094 35.773438 151.441406 35.820312 C 151.761719 35.863281 152.050781 35.949219 152.316406 36.078125 C 152.582031 36.207031 152.796875 36.382812 152.964844 36.609375 C 153.132812 36.839844 153.214844 37.140625 153.214844 37.515625 L 153.214844 40.746094 C 153.214844 41.023438 153.230469 41.292969 153.265625 41.550781 C 153.296875 41.804688 153.351562 41.996094 153.433594 42.125 L 151.703125 42.125 C 151.671875 42.027344 151.644531 41.929688 151.625 41.832031 C 151.605469 41.730469 151.59375 41.628906 151.585938 41.523438 C 151.3125 41.804688 150.992188 42 150.625 42.113281 C 150.257812 42.226562 149.878906 42.28125 149.496094 42.28125 C 149.199219 42.28125 148.925781 42.246094 148.667969 42.171875 C 148.410156 42.101562 148.1875 41.988281 147.996094 41.835938 C 147.804688 41.683594 147.652344 41.492188 147.546875 41.261719 C 147.4375 41.027344 147.382812 40.753906 147.382812 40.433594 C 147.382812 40.082031 147.445312 39.789062 147.570312 39.5625 C 147.695312 39.335938 147.855469 39.152344 148.050781 39.015625 C 148.246094 38.878906 148.46875 38.777344 148.722656 38.710938 C 148.972656 38.644531 149.226562 38.589844 149.484375 38.550781 C 149.738281 38.507812 149.992188 38.476562 150.238281 38.453125 C 150.488281 38.429688 150.707031 38.394531 150.898438 38.34375 C 151.089844 38.296875 151.242188 38.226562 151.355469 38.136719 C 151.46875 38.042969 151.519531 37.910156 151.511719 37.734375 C 151.511719 37.550781 151.480469 37.402344 151.421875 37.296875 C 151.363281 37.1875 151.28125 37.101562 151.183594 37.042969 C 151.082031 36.984375 150.964844 36.941406 150.835938 36.921875 C 150.703125 36.902344 150.558594 36.894531 150.40625 36.894531 C 150.070312 36.894531 149.808594 36.964844 149.617188 37.109375 C 149.425781 37.253906 149.3125 37.492188 149.28125 37.828125 Z M 151.511719 39.089844 C 151.441406 39.152344 151.351562 39.203125 151.242188 39.238281 C 151.132812 39.273438 151.019531 39.304688 150.894531 39.328125 C 150.769531 39.351562 150.640625 39.371094 150.503906 39.390625 C 150.367188 39.40625 150.230469 39.425781 150.097656 39.449219 C 149.96875 39.472656 149.84375 39.503906 149.71875 39.546875 C 149.59375 39.585938 149.484375 39.640625 149.394531 39.707031 C 149.300781 39.773438 149.226562 39.859375 149.171875 39.964844 C 149.117188 40.070312 149.089844 40.199219 149.089844 40.359375 C 149.089844 40.511719 149.117188 40.640625 149.171875 40.746094 C 149.226562 40.847656 149.304688 40.929688 149.398438 40.992188 C 149.496094 41.050781 149.609375 41.09375 149.734375 41.117188 C 149.863281 41.140625 149.996094 41.152344 150.132812 41.152344 C 150.46875 41.152344 150.726562 41.097656 150.910156 40.984375 C 151.09375 40.871094 151.230469 40.738281 151.320312 40.582031 C 151.40625 40.425781 151.460938 40.269531 151.480469 40.109375 C 151.5 39.949219 151.511719 39.820312 151.511719 39.726562 Z M 156.808594 35.921875 L 156.808594 34.0625 L 155.105469 34.0625 L 155.105469 35.921875 L 154.070312 35.921875 L 154.070312 37.0625 L 155.105469 37.0625 L 155.105469 40.722656 C 155.105469 41.035156 155.15625 41.285156 155.261719 41.476562 C 155.363281 41.667969 155.507812 41.816406 155.6875 41.921875 C 155.867188 42.023438 156.074219 42.09375 156.308594 42.132812 C 156.546875 42.167969 156.796875 42.183594 157.058594 42.183594 C 157.226562 42.183594 157.398438 42.179688 157.574219 42.171875 C 157.75 42.164062 157.910156 42.148438 158.054688 42.125 L 158.054688 40.804688 C 157.976562 40.820312 157.890625 40.832031 157.804688 40.839844 C 157.714844 40.847656 157.625 40.851562 157.527344 40.851562 C 157.238281 40.851562 157.046875 40.804688 156.953125 40.710938 C 156.855469 40.613281 156.808594 40.421875 156.808594 40.132812 L 156.808594 37.0625 L 158.054688 37.0625 L 158.054688 35.921875 Z M 160.398438 34.960938 L 160.398438 33.558594 L 158.695312 33.558594 L 158.695312 34.960938 Z M 158.695312 35.921875 L 158.695312 42.125 L 160.398438 42.125 L 160.398438 35.921875 Z M 161.648438 35.921875 L 161.648438 42.125 L 163.351562 42.125 L 163.351562 38.871094 C 163.351562 38.242188 163.457031 37.785156 163.664062 37.511719 C 163.871094 37.234375 164.207031 37.097656 164.671875 37.097656 C 165.078125 37.097656 165.363281 37.222656 165.523438 37.476562 C 165.683594 37.726562 165.765625 38.109375 165.765625 38.621094 L 165.765625 42.125 L 167.46875 42.125 L 167.46875 38.308594 C 167.46875 37.925781 167.433594 37.574219 167.367188 37.257812 C 167.296875 36.941406 167.179688 36.675781 167.011719 36.453125 C 166.84375 36.234375 166.613281 36.0625 166.320312 35.9375 C 166.03125 35.816406 165.65625 35.753906 165.199219 35.753906 C 164.839844 35.753906 164.488281 35.835938 164.144531 36 C 163.800781 36.164062 163.519531 36.425781 163.304688 36.785156 L 163.269531 36.785156 L 163.269531 35.921875 Z M 171.539062 40.660156 C 171.277344 40.660156 171.054688 40.605469 170.878906 40.492188 C 170.703125 40.378906 170.5625 40.238281 170.453125 40.0625 C 170.347656 39.886719 170.269531 39.6875 170.226562 39.46875 C 170.183594 39.246094 170.160156 39.023438 170.160156 38.800781 C 170.160156 38.570312 170.1875 38.347656 170.238281 38.136719 C 170.289062 37.921875 170.375 37.734375 170.488281 37.570312 C 170.605469 37.40625 170.75 37.277344 170.921875 37.179688 C 171.09375 37.085938 171.300781 37.035156 171.539062 37.035156 C 171.820312 37.035156 172.050781 37.089844 172.234375 37.191406 C 172.417969 37.296875 172.566406 37.4375 172.679688 37.613281 C 172.792969 37.789062 172.871094 37.992188 172.921875 38.21875 C 172.96875 38.445312 172.992188 38.6875 172.992188 38.945312 C 172.992188 39.167969 172.960938 39.382812 172.902344 39.585938 C 172.84375 39.789062 172.753906 39.972656 172.632812 40.132812 C 172.511719 40.292969 172.359375 40.421875 172.175781 40.515625 C 171.992188 40.613281 171.78125 40.660156 171.539062 40.660156 Z M 174.613281 41.730469 L 174.613281 35.921875 L 172.992188 35.921875 L 172.992188 36.75 L 172.96875 36.75 C 172.761719 36.390625 172.503906 36.132812 172.195312 35.980469 C 171.886719 35.828125 171.527344 35.753906 171.121094 35.753906 C 170.6875 35.753906 170.304688 35.835938 169.972656 36.003906 C 169.640625 36.171875 169.363281 36.398438 169.140625 36.683594 C 168.917969 36.96875 168.746094 37.296875 168.628906 37.667969 C 168.511719 38.039062 168.457031 38.425781 168.457031 38.824219 C 168.457031 39.25 168.507812 39.652344 168.605469 40.03125 C 168.707031 40.410156 168.863281 40.742188 169.078125 41.027344 C 169.296875 41.3125 169.570312 41.535156 169.90625 41.699219 C 170.242188 41.863281 170.644531 41.945312 171.109375 41.945312 C 171.484375 41.945312 171.84375 41.867188 172.183594 41.710938 C 172.523438 41.554688 172.785156 41.3125 172.96875 40.984375 L 172.992188 40.984375 L 172.992188 41.800781 C 173 42.242188 172.894531 42.605469 172.675781 42.894531 C 172.453125 43.179688 172.105469 43.324219 171.625 43.324219 C 171.320312 43.324219 171.050781 43.261719 170.820312 43.140625 C 170.589844 43.015625 170.433594 42.792969 170.351562 42.472656 L 168.660156 42.472656 C 168.683594 42.824219 168.78125 43.128906 168.953125 43.378906 C 169.125 43.632812 169.34375 43.835938 169.601562 43.996094 C 169.863281 44.15625 170.148438 44.273438 170.464844 44.351562 C 170.78125 44.425781 171.09375 44.464844 171.394531 44.464844 C 172.109375 44.464844 172.675781 44.367188 173.101562 44.175781 C 173.523438 43.984375 173.847656 43.75 174.070312 43.476562 C 174.296875 43.199219 174.441406 42.902344 174.511719 42.582031 C 174.578125 42.261719 174.613281 41.976562 174.613281 41.730469 Z M 183.050781 39.003906 C 183.050781 39.261719 183.027344 39.507812 182.980469 39.75 C 182.933594 39.988281 182.851562 40.203125 182.738281 40.390625 C 182.628906 40.578125 182.476562 40.730469 182.289062 40.839844 C 182.101562 40.953125 181.867188 41.007812 181.589844 41.007812 C 181.324219 41.007812 181.097656 40.949219 180.910156 40.835938 C 180.722656 40.71875 180.566406 40.566406 180.441406 40.378906 C 180.316406 40.191406 180.226562 39.976562 180.171875 39.738281 C 180.117188 39.496094 180.089844 39.257812 180.089844 39.015625 C 180.089844 38.761719 180.113281 38.515625 180.164062 38.277344 C 180.21875 38.042969 180.300781 37.832031 180.417969 37.648438 C 180.535156 37.464844 180.6875 37.316406 180.878906 37.203125 C 181.070312 37.09375 181.308594 37.035156 181.589844 37.035156 C 181.867188 37.035156 182.101562 37.09375 182.285156 37.203125 C 182.46875 37.316406 182.617188 37.464844 182.734375 37.644531 C 182.851562 37.824219 182.933594 38.03125 182.980469 38.265625 C 183.027344 38.503906 183.050781 38.75 183.050781 39.003906 Z M 183.074219 41.332031 L 183.074219 42.125 L 184.695312 42.125 L 184.695312 33.558594 L 182.992188 33.558594 L 182.992188 36.675781 L 182.96875 36.675781 C 182.777344 36.371094 182.515625 36.144531 182.183594 35.988281 C 181.851562 35.832031 181.5 35.753906 181.132812 35.753906 C 180.675781 35.753906 180.277344 35.84375 179.933594 36.023438 C 179.589844 36.203125 179.300781 36.441406 179.074219 36.738281 C 178.847656 37.035156 178.675781 37.375 178.558594 37.761719 C 178.441406 38.152344 178.382812 38.554688 178.382812 38.96875 C 178.382812 39.402344 178.441406 39.816406 178.558594 40.21875 C 178.675781 40.617188 178.847656 40.972656 179.074219 41.277344 C 179.300781 41.585938 179.59375 41.832031 179.945312 42.011719 C 180.296875 42.191406 180.703125 42.28125 181.167969 42.28125 C 181.574219 42.28125 181.941406 42.207031 182.265625 42.058594 C 182.589844 41.910156 182.851562 41.667969 183.050781 41.332031 Z M 189.824219 38.355469 L 187.050781 38.355469 C 187.058594 38.238281 187.085938 38.101562 187.128906 37.949219 C 187.171875 37.796875 187.25 37.652344 187.359375 37.515625 C 187.464844 37.378906 187.609375 37.265625 187.789062 37.175781 C 187.96875 37.082031 188.195312 37.035156 188.46875 37.035156 C 188.882812 37.035156 189.195312 37.148438 189.398438 37.371094 C 189.601562 37.597656 189.742188 37.925781 189.824219 38.355469 Z M 187.050781 39.4375 L 191.527344 39.4375 C 191.558594 38.957031 191.519531 38.496094 191.40625 38.058594 C 191.296875 37.617188 191.113281 37.226562 190.863281 36.882812 C 190.609375 36.539062 190.289062 36.261719 189.894531 36.058594 C 189.503906 35.855469 189.042969 35.753906 188.515625 35.753906 C 188.042969 35.753906 187.613281 35.835938 187.226562 36.003906 C 186.839844 36.171875 186.503906 36.402344 186.222656 36.695312 C 185.945312 36.988281 185.726562 37.332031 185.574219 37.734375 C 185.421875 38.132812 185.347656 38.566406 185.347656 39.027344 C 185.347656 39.507812 185.421875 39.949219 185.570312 40.347656 C 185.71875 40.75 185.929688 41.09375 186.199219 41.382812 C 186.472656 41.667969 186.804688 41.890625 187.195312 42.046875 C 187.585938 42.203125 188.027344 42.28125 188.515625 42.28125 C 189.21875 42.28125 189.820312 42.121094 190.316406 41.800781 C 190.8125 41.480469 191.179688 40.949219 191.421875 40.203125 L 189.921875 40.203125 C 189.863281 40.394531 189.710938 40.578125 189.464844 40.75 C 189.214844 40.921875 188.921875 41.007812 188.574219 41.007812 C 188.09375 41.007812 187.726562 40.886719 187.472656 40.636719 C 187.214844 40.390625 187.074219 39.988281 187.050781 39.4375 Z M 192.695312 33.558594 L 192.695312 42.125 L 194.398438 42.125 L 194.398438 33.558594 Z M 197.398438 34.960938 L 197.398438 33.558594 L 195.695312 33.558594 L 195.695312 34.960938 Z M 195.695312 35.921875 L 195.695312 42.125 L 197.398438 42.125 L 197.398438 35.921875 Z M 202.871094 38.105469 L 204.539062 38.105469 C 204.515625 37.707031 204.421875 37.359375 204.253906 37.066406 C 204.085938 36.773438 203.867188 36.53125 203.597656 36.335938 C 203.328125 36.140625 203.027344 35.992188 202.6875 35.898438 C 202.347656 35.800781 201.992188 35.753906 201.625 35.753906 C 201.121094 35.753906 200.671875 35.835938 200.28125 36.003906 C 199.886719 36.171875 199.554688 36.40625 199.285156 36.707031 C 199.011719 37.007812 198.804688 37.363281 198.664062 37.773438 C 198.523438 38.1875 198.457031 38.632812 198.457031 39.113281 C 198.457031 39.578125 198.53125 40.003906 198.683594 40.390625 C 198.835938 40.777344 199.046875 41.113281 199.320312 41.394531 C 199.59375 41.671875 199.921875 41.890625 200.308594 42.046875 C 200.699219 42.203125 201.125 42.28125 201.589844 42.28125 C 202.414062 42.28125 203.089844 42.066406 203.617188 41.632812 C 204.144531 41.199219 204.464844 40.574219 204.574219 39.75 L 202.933594 39.75 C 202.875 40.132812 202.738281 40.4375 202.519531 40.667969 C 202.296875 40.894531 201.984375 41.007812 201.574219 41.007812 C 201.3125 41.007812 201.089844 40.949219 200.902344 40.828125 C 200.71875 40.707031 200.574219 40.554688 200.464844 40.367188 C 200.359375 40.179688 200.28125 39.96875 200.230469 39.738281 C 200.183594 39.503906 200.160156 39.277344 200.160156 39.054688 C 200.160156 38.820312 200.183594 38.585938 200.230469 38.351562 C 200.28125 38.113281 200.363281 37.898438 200.476562 37.703125 C 200.59375 37.507812 200.742188 37.347656 200.929688 37.222656 C 201.113281 37.097656 201.339844 37.035156 201.613281 37.035156 C 202.339844 37.035156 202.761719 37.394531 202.871094 38.105469 Z M 207.398438 34.960938 L 207.398438 33.558594 L 205.695312 33.558594 L 205.695312 34.960938 Z M 205.695312 35.921875 L 205.695312 42.125 L 207.398438 42.125 L 207.398438 35.921875 Z M 210.160156 39.027344 C 210.160156 38.78125 210.183594 38.535156 210.230469 38.296875 C 210.28125 38.058594 210.363281 37.84375 210.476562 37.660156 C 210.59375 37.476562 210.746094 37.328125 210.941406 37.210938 C 211.132812 37.09375 211.371094 37.035156 211.660156 37.035156 C 211.949219 37.035156 212.191406 37.09375 212.386719 37.210938 C 212.582031 37.328125 212.738281 37.476562 212.855469 37.660156 C 212.96875 37.84375 213.050781 38.058594 213.101562 38.296875 C 213.148438 38.535156 213.171875 38.78125 213.171875 39.027344 C 213.171875 39.277344 213.148438 39.519531 213.101562 39.753906 C 213.050781 39.992188 212.96875 40.203125 212.855469 40.390625 C 212.738281 40.578125 212.582031 40.730469 212.386719 40.839844 C 212.191406 40.953125 211.949219 41.007812 211.660156 41.007812 C 211.371094 41.007812 211.132812 40.953125 210.941406 40.839844 C 210.75 40.730469 210.59375 40.578125 210.476562 40.390625 C 210.363281 40.203125 210.28125 39.992188 210.230469 39.753906 C 210.183594 39.519531 210.160156 39.277344 210.160156 39.027344 Z M 208.457031 39.027344 C 208.457031 39.523438 208.53125 39.972656 208.683594 40.371094 C 208.835938 40.773438 209.050781 41.113281 209.332031 41.398438 C 209.613281 41.683594 209.949219 41.902344 210.339844 42.054688 C 210.730469 42.207031 211.171875 42.28125 211.660156 42.28125 C 212.148438 42.28125 212.589844 42.203125 212.984375 42.054688 C 213.382812 41.902344 213.71875 41.683594 214 41.398438 C 214.28125 41.113281 214.496094 40.773438 214.648438 40.371094 C 214.800781 39.972656 214.875 39.523438 214.875 39.027344 C 214.875 38.53125 214.800781 38.082031 214.648438 37.679688 C 214.496094 37.273438 214.28125 36.929688 214 36.648438 C 213.71875 36.363281 213.382812 36.144531 212.984375 35.988281 C 212.589844 35.832031 212.148438 35.753906 211.660156 35.753906 C 211.171875 35.753906 210.730469 35.832031 210.339844 35.988281 C 209.949219 36.144531 209.613281 36.363281 209.332031 36.648438 C 209.050781 36.929688 208.835938 37.273438 208.683594 37.679688 C 208.53125 38.082031 208.457031 38.53125 208.457031 39.027344 Z M 221.46875 42.125 L 221.46875 35.921875 L 219.765625 35.921875 L 219.765625 39.171875 C 219.765625 39.804688 219.660156 40.257812 219.453125 40.535156 C 219.246094 40.8125 218.90625 40.949219 218.445312 40.949219 C 218.035156 40.949219 217.753906 40.824219 217.59375 40.570312 C 217.433594 40.320312 217.351562 39.9375 217.351562 39.425781 L 217.351562 35.921875 L 215.648438 35.921875 L 215.648438 39.738281 C 215.648438 40.121094 215.683594 40.472656 215.75 40.785156 C 215.816406 41.101562 215.9375 41.371094 216.105469 41.589844 C 216.273438 41.8125 216.503906 41.980469 216.792969 42.101562 C 217.085938 42.222656 217.460938 42.28125 217.914062 42.28125 C 218.273438 42.28125 218.628906 42.199219 218.972656 42.039062 C 219.316406 41.878906 219.597656 41.621094 219.8125 41.261719 L 219.847656 41.261719 L 219.847656 42.125 Z M 223.96875 40.109375 L 222.347656 40.109375 C 222.363281 40.523438 222.457031 40.871094 222.628906 41.148438 C 222.800781 41.421875 223.023438 41.644531 223.289062 41.8125 C 223.558594 41.980469 223.863281 42.101562 224.207031 42.171875 C 224.550781 42.246094 224.902344 42.28125 225.265625 42.28125 C 225.617188 42.28125 225.960938 42.246094 226.300781 42.179688 C 226.640625 42.109375 226.945312 41.992188 227.207031 41.824219 C 227.472656 41.65625 227.6875 41.433594 227.851562 41.160156 C 228.015625 40.882812 228.097656 40.539062 228.097656 40.132812 C 228.097656 39.84375 228.039062 39.601562 227.929688 39.40625 C 227.816406 39.210938 227.667969 39.046875 227.484375 38.914062 C 227.300781 38.78125 227.089844 38.675781 226.855469 38.597656 C 226.617188 38.515625 226.375 38.449219 226.128906 38.394531 C 225.886719 38.335938 225.652344 38.285156 225.421875 38.238281 C 225.1875 38.1875 224.980469 38.136719 224.800781 38.074219 C 224.621094 38.015625 224.476562 37.9375 224.363281 37.839844 C 224.25 37.746094 224.195312 37.621094 224.195312 37.46875 C 224.195312 37.339844 224.226562 37.238281 224.292969 37.164062 C 224.355469 37.085938 224.433594 37.027344 224.527344 36.988281 C 224.617188 36.949219 224.71875 36.921875 224.832031 36.910156 C 224.945312 36.898438 225.046875 36.894531 225.144531 36.894531 C 225.449219 36.894531 225.710938 36.949219 225.9375 37.066406 C 226.160156 37.183594 226.285156 37.40625 226.308594 37.734375 L 227.929688 37.734375 C 227.898438 37.347656 227.796875 37.03125 227.632812 36.777344 C 227.46875 36.527344 227.265625 36.324219 227.015625 36.171875 C 226.769531 36.019531 226.484375 35.914062 226.171875 35.847656 C 225.855469 35.785156 225.527344 35.753906 225.191406 35.753906 C 224.855469 35.753906 224.527344 35.78125 224.207031 35.84375 C 223.886719 35.902344 223.601562 36.007812 223.34375 36.15625 C 223.089844 36.304688 222.882812 36.503906 222.726562 36.761719 C 222.570312 37.015625 222.492188 37.34375 222.492188 37.746094 C 222.492188 38.015625 222.546875 38.246094 222.660156 38.433594 C 222.773438 38.621094 222.921875 38.777344 223.105469 38.902344 C 223.289062 39.027344 223.496094 39.128906 223.734375 39.203125 C 223.96875 39.277344 224.210938 39.34375 224.460938 39.402344 C 225.066406 39.53125 225.542969 39.65625 225.882812 39.785156 C 226.222656 39.914062 226.390625 40.105469 226.390625 40.359375 C 226.390625 40.511719 226.355469 40.640625 226.285156 40.738281 C 226.210938 40.839844 226.121094 40.917969 226.015625 40.980469 C 225.90625 41.039062 225.785156 41.082031 225.652344 41.109375 C 225.519531 41.136719 225.394531 41.152344 225.277344 41.152344 C 225.109375 41.152344 224.945312 41.132812 224.789062 41.09375 C 224.632812 41.054688 224.496094 40.992188 224.375 40.90625 C 224.253906 40.824219 224.15625 40.714844 224.082031 40.582031 C 224.007812 40.449219 223.96875 40.292969 223.96875 40.109375 Z M 232.019531 37.0625 L 232.019531 42.125 L 233.722656 42.125 L 233.722656 37.0625 L 234.898438 37.0625 L 234.898438 35.921875 L 233.722656 35.921875 L 233.722656 35.550781 C 233.722656 35.292969 233.773438 35.109375 233.875 35.003906 C 233.972656 34.894531 234.140625 34.839844 234.371094 34.839844 C 234.585938 34.839844 234.796875 34.851562 234.996094 34.878906 L 234.996094 33.605469 C 234.851562 33.597656 234.703125 33.585938 234.550781 33.574219 C 234.398438 33.5625 234.246094 33.558594 234.097656 33.558594 C 233.402344 33.558594 232.878906 33.734375 232.535156 34.085938 C 232.191406 34.4375 232.019531 34.890625 232.019531 35.441406 L 232.019531 35.921875 L 231 35.921875 L 231 37.0625 Z M 237.160156 39.027344 C 237.160156 38.78125 237.183594 38.535156 237.230469 38.296875 C 237.28125 38.058594 237.363281 37.84375 237.476562 37.660156 C 237.59375 37.476562 237.746094 37.328125 237.941406 37.210938 C 238.132812 37.09375 238.371094 37.035156 238.660156 37.035156 C 238.949219 37.035156 239.191406 37.09375 239.386719 37.210938 C 239.582031 37.328125 239.738281 37.476562 239.855469 37.660156 C 239.96875 37.84375 240.050781 38.058594 240.101562 38.296875 C 240.148438 38.535156 240.171875 38.78125 240.171875 39.027344 C 240.171875 39.277344 240.148438 39.519531 240.101562 39.753906 C 240.050781 39.992188 239.96875 40.203125 239.855469 40.390625 C 239.738281 40.578125 239.582031 40.730469 239.386719 40.839844 C 239.191406 40.953125 238.949219 41.007812 238.660156 41.007812 C 238.371094 41.007812 238.132812 40.953125 237.941406 40.839844 C 237.75 40.730469 237.59375 40.578125 237.476562 40.390625 C 237.363281 40.203125 237.28125 39.992188 237.230469 39.753906 C 237.183594 39.519531 237.160156 39.277344 237.160156 39.027344 Z M 235.457031 39.027344 C 235.457031 39.523438 235.53125 39.972656 235.683594 40.371094 C 235.835938 40.773438 236.050781 41.113281 236.332031 41.398438 C 236.613281 41.683594 236.949219 41.902344 237.339844 42.054688 C 237.730469 42.207031 238.171875 42.28125 238.660156 42.28125 C 239.148438 42.28125 239.589844 42.203125 239.984375 42.054688 C 240.382812 41.902344 240.71875 41.683594 241 41.398438 C 241.28125 41.113281 241.496094 40.773438 241.648438 40.371094 C 241.800781 39.972656 241.875 39.523438 241.875 39.027344 C 241.875 38.53125 241.800781 38.082031 241.648438 37.679688 C 241.496094 37.273438 241.28125 36.929688 241 36.648438 C 240.71875 36.363281 240.382812 36.144531 239.984375 35.988281 C 239.589844 35.832031 239.148438 35.753906 238.660156 35.753906 C 238.171875 35.753906 237.730469 35.832031 237.339844 35.988281 C 236.949219 36.144531 236.613281 36.363281 236.332031 36.648438 C 236.050781 36.929688 235.835938 37.273438 235.683594 37.679688 C 235.53125 38.082031 235.457031 38.53125 235.457031 39.027344 Z M 244.160156 39.027344 C 244.160156 38.78125 244.183594 38.535156 244.230469 38.296875 C 244.28125 38.058594 244.363281 37.84375 244.476562 37.660156 C 244.59375 37.476562 244.746094 37.328125 244.941406 37.210938 C 245.132812 37.09375 245.371094 37.035156 245.660156 37.035156 C 245.949219 37.035156 246.191406 37.09375 246.386719 37.210938 C 246.582031 37.328125 246.738281 37.476562 246.855469 37.660156 C 246.96875 37.84375 247.050781 38.058594 247.101562 38.296875 C 247.148438 38.535156 247.171875 38.78125 247.171875 39.027344 C 247.171875 39.277344 247.148438 39.519531 247.101562 39.753906 C 247.050781 39.992188 246.96875 40.203125 246.855469 40.390625 C 246.738281 40.578125 246.582031 40.730469 246.386719 40.839844 C 246.191406 40.953125 245.949219 41.007812 245.660156 41.007812 C 245.371094 41.007812 245.132812 40.953125 244.941406 40.839844 C 244.75 40.730469 244.59375 40.578125 244.476562 40.390625 C 244.363281 40.203125 244.28125 39.992188 244.230469 39.753906 C 244.183594 39.519531 244.160156 39.277344 244.160156 39.027344 Z M 242.457031 39.027344 C 242.457031 39.523438 242.53125 39.972656 242.683594 40.371094 C 242.835938 40.773438 243.050781 41.113281 243.332031 41.398438 C 243.613281 41.683594 243.949219 41.902344 244.339844 42.054688 C 244.730469 42.207031 245.171875 42.28125 245.660156 42.28125 C 246.148438 42.28125 246.589844 42.203125 246.984375 42.054688 C 247.382812 41.902344 247.71875 41.683594 248 41.398438 C 248.28125 41.113281 248.496094 40.773438 248.648438 40.371094 C 248.800781 39.972656 248.875 39.523438 248.875 39.027344 C 248.875 38.53125 248.800781 38.082031 248.648438 37.679688 C 248.496094 37.273438 248.28125 36.929688 248 36.648438 C 247.71875 36.363281 247.382812 36.144531 246.984375 35.988281 C 246.589844 35.832031 246.148438 35.753906 245.660156 35.753906 C 245.171875 35.753906 244.730469 35.832031 244.339844 35.988281 C 243.949219 36.144531 243.613281 36.363281 243.332031 36.648438 C 243.050781 36.929688 242.835938 37.273438 242.683594 37.679688 C 242.53125 38.082031 242.457031 38.53125 242.457031 39.027344 Z M 254.050781 39.003906 C 254.050781 39.261719 254.027344 39.507812 253.980469 39.75 C 253.933594 39.988281 253.851562 40.203125 253.738281 40.390625 C 253.628906 40.578125 253.476562 40.730469 253.289062 40.839844 C 253.101562 40.953125 252.867188 41.007812 252.589844 41.007812 C 252.324219 41.007812 252.097656 40.949219 251.910156 40.835938 C 251.722656 40.71875 251.566406 40.566406 251.441406 40.378906 C 251.316406 40.191406 251.226562 39.976562 251.171875 39.738281 C 251.117188 39.496094 251.089844 39.257812 251.089844 39.015625 C 251.089844 38.761719 251.113281 38.515625 251.164062 38.277344 C 251.21875 38.042969 251.300781 37.832031 251.417969 37.648438 C 251.535156 37.464844 251.6875 37.316406 251.878906 37.203125 C 252.070312 37.09375 252.308594 37.035156 252.589844 37.035156 C 252.867188 37.035156 253.101562 37.09375 253.285156 37.203125 C 253.46875 37.316406 253.617188 37.464844 253.734375 37.644531 C 253.851562 37.824219 253.933594 38.03125 253.980469 38.265625 C 254.027344 38.503906 254.050781 38.75 254.050781 39.003906 Z M 254.074219 41.332031 L 254.074219 42.125 L 255.695312 42.125 L 255.695312 33.558594 L 253.992188 33.558594 L 253.992188 36.675781 L 253.96875 36.675781 C 253.777344 36.371094 253.515625 36.144531 253.183594 35.988281 C 252.851562 35.832031 252.5 35.753906 252.132812 35.753906 C 251.675781 35.753906 251.277344 35.84375 250.933594 36.023438 C 250.589844 36.203125 250.300781 36.441406 250.074219 36.738281 C 249.847656 37.035156 249.675781 37.375 249.558594 37.761719 C 249.441406 38.152344 249.382812 38.554688 249.382812 38.96875 C 249.382812 39.402344 249.441406 39.816406 249.558594 40.21875 C 249.675781 40.617188 249.847656 40.972656 250.074219 41.277344 C 250.300781 41.585938 250.59375 41.832031 250.945312 42.011719 C 251.296875 42.191406 251.703125 42.28125 252.167969 42.28125 C 252.574219 42.28125 252.941406 42.207031 253.265625 42.058594 C 253.589844 41.910156 253.851562 41.667969 254.050781 41.332031 Z M 257.96875 40.109375 L 256.347656 40.109375 C 256.363281 40.523438 256.457031 40.871094 256.628906 41.148438 C 256.800781 41.421875 257.023438 41.644531 257.289062 41.8125 C 257.558594 41.980469 257.863281 42.101562 258.207031 42.171875 C 258.550781 42.246094 258.902344 42.28125 259.265625 42.28125 C 259.617188 42.28125 259.960938 42.246094 260.300781 42.179688 C 260.640625 42.109375 260.945312 41.992188 261.207031 41.824219 C 261.472656 41.65625 261.6875 41.433594 261.851562 41.160156 C 262.015625 40.882812 262.097656 40.539062 262.097656 40.132812 C 262.097656 39.84375 262.039062 39.601562 261.929688 39.40625 C 261.816406 39.210938 261.667969 39.046875 261.484375 38.914062 C 261.300781 38.78125 261.089844 38.675781 260.855469 38.597656 C 260.617188 38.515625 260.375 38.449219 260.128906 38.394531 C 259.886719 38.335938 259.652344 38.285156 259.421875 38.238281 C 259.1875 38.1875 258.980469 38.136719 258.800781 38.074219 C 258.621094 38.015625 258.476562 37.9375 258.363281 37.839844 C 258.25 37.746094 258.195312 37.621094 258.195312 37.46875 C 258.195312 37.339844 258.226562 37.238281 258.292969 37.164062 C 258.355469 37.085938 258.433594 37.027344 258.527344 36.988281 C 258.617188 36.949219 258.71875 36.921875 258.832031 36.910156 C 258.945312 36.898438 259.046875 36.894531 259.144531 36.894531 C 259.449219 36.894531 259.710938 36.949219 259.9375 37.066406 C 260.160156 37.183594 260.285156 37.40625 260.308594 37.734375 L 261.929688 37.734375 C 261.898438 37.347656 261.796875 37.03125 261.632812 36.777344 C 261.46875 36.527344 261.265625 36.324219 261.015625 36.171875 C 260.769531 36.019531 260.484375 35.914062 260.171875 35.847656 C 259.855469 35.785156 259.527344 35.753906 259.191406 35.753906 C 258.855469 35.753906 258.527344 35.78125 258.207031 35.84375 C 257.886719 35.902344 257.601562 36.007812 257.34375 36.15625 C 257.089844 36.304688 256.882812 36.503906 256.726562 36.761719 C 256.570312 37.015625 256.492188 37.34375 256.492188 37.746094 C 256.492188 38.015625 256.546875 38.246094 256.660156 38.433594 C 256.773438 38.621094 256.921875 38.777344 257.105469 38.902344 C 257.289062 39.027344 257.496094 39.128906 257.734375 39.203125 C 257.96875 39.277344 258.210938 39.34375 258.460938 39.402344 C 259.066406 39.53125 259.542969 39.65625 259.882812 39.785156 C 260.222656 39.914062 260.390625 40.105469 260.390625 40.359375 C 260.390625 40.511719 260.355469 40.640625 260.285156 40.738281 C 260.210938 40.839844 260.121094 40.917969 260.015625 40.980469 C 259.90625 41.039062 259.785156 41.082031 259.652344 41.109375 C 259.519531 41.136719 259.394531 41.152344 259.277344 41.152344 C 259.109375 41.152344 258.945312 41.132812 258.789062 41.09375 C 258.632812 41.054688 258.496094 40.992188 258.375 40.90625 C 258.253906 40.824219 258.15625 40.714844 258.082031 40.582031 C 258.007812 40.449219 257.96875 40.292969 257.96875 40.109375 Z M 66 30.125 "/>
<path style="fill-rule:nonzero;fill:rgb(39.215686%,90.980392%,23.529412%);fill-opacity:1;stroke-width:2;stroke-linecap:butt;stroke-linejoin:miter;stroke:rgb(100%,100%,100%);stroke-opacity:1;stroke-miterlimit:10;" d="M 287 32 L 327 32 L 327 44 L 287 44 Z M 287 32 "/>
<path style=" stroke:none;fill-rule:nonzero;fill:rgb(40%,40%,40%);fill-opacity:1;" d="M 335.710938 37.589844 L 335.710938 35.019531 L 337.175781 35.019531 C 337.390625 35.019531 337.601562 35.035156 337.800781 35.070312 C 338 35.101562 338.175781 35.164062 338.328125 35.253906 C 338.480469 35.347656 338.601562 35.476562 338.695312 35.644531 C 338.785156 35.8125 338.832031 36.03125 338.832031 36.304688 C 338.832031 36.578125 338.785156 36.796875 338.695312 36.964844 C 338.601562 37.132812 338.480469 37.261719 338.328125 37.355469 C 338.175781 37.445312 338 37.507812 337.800781 37.539062 C 337.601562 37.574219 337.390625 37.589844 337.175781 37.589844 Z M 333.828125 33.558594 L 333.828125 42.125 L 335.710938 42.125 L 335.710938 39.054688 L 337.691406 39.054688 C 338.226562 39.054688 338.683594 38.976562 339.058594 38.820312 C 339.433594 38.664062 339.742188 38.457031 339.976562 38.199219 C 340.214844 37.945312 340.386719 37.652344 340.492188 37.320312 C 340.601562 36.988281 340.65625 36.648438 340.65625 36.304688 C 340.65625 35.953125 340.601562 35.613281 340.492188 35.285156 C 340.386719 34.957031 340.214844 34.664062 339.976562 34.410156 C 339.742188 34.152344 339.4375 33.945312 339.058594 33.789062 C 338.683594 33.632812 338.226562 33.558594 337.691406 33.558594 Z M 343.398438 34.960938 L 343.398438 33.558594 L 341.695312 33.558594 L 341.695312 34.960938 Z M 341.695312 35.921875 L 341.695312 42.125 L 343.398438 42.125 L 343.398438 35.921875 Z M 344.574219 37.828125 C 344.597656 37.429688 344.699219 37.097656 344.875 36.832031 C 345.050781 36.570312 345.277344 36.355469 345.546875 36.195312 C 345.820312 36.035156 346.125 35.921875 346.464844 35.855469 C 346.804688 35.789062 347.148438 35.753906 347.492188 35.753906 C 347.804688 35.753906 348.121094 35.773438 348.441406 35.820312 C 348.761719 35.863281 349.050781 35.949219 349.316406 36.078125 C 349.582031 36.207031 349.796875 36.382812 349.964844 36.609375 C 350.132812 36.839844 350.214844 37.140625 350.214844 37.515625 L 350.214844 40.746094 C 350.214844 41.023438 350.230469 41.292969 350.265625 41.550781 C 350.296875 41.804688 350.351562 41.996094 350.433594 42.125 L 348.703125 42.125 C 348.671875 42.027344 348.644531 41.929688 348.625 41.832031 C 348.605469 41.730469 348.59375 41.628906 348.585938 41.523438 C 348.3125 41.804688 347.992188 42 347.625 42.113281 C 347.257812 42.226562 346.878906 42.28125 346.496094 42.28125 C 346.199219 42.28125 345.925781 42.246094 345.667969 42.171875 C 345.410156 42.101562 345.1875 41.988281 344.996094 41.835938 C 344.804688 41.683594 344.652344 41.492188 344.546875 41.261719 C 344.4375 41.027344 344.382812 40.753906 344.382812 40.433594 C 344.382812 40.082031 344.445312 39.789062 344.570312 39.5625 C 344.695312 39.335938 344.855469 39.152344 345.050781 39.015625 C 345.246094 38.878906 345.46875 38.777344 345.722656 38.710938 C 345.972656 38.644531 346.226562 38.589844 346.484375 38.550781 C 346.738281 38.507812 346.992188 38.476562 347.238281 38.453125 C 347.488281 38.429688 347.707031 38.394531 347.898438 38.34375 C 348.089844 38.296875 348.242188 38.226562 348.355469 38.136719 C 348.46875 38.042969 348.519531 37.910156 348.511719 37.734375 C 348.511719 37.550781 348.480469 37.402344 348.421875 37.296875 C 348.363281 37.1875 348.28125 37.101562 348.183594 37.042969 C 348.082031 36.984375 347.964844 36.941406 347.835938 36.921875 C 347.703125 36.902344 347.558594 36.894531 347.40625 36.894531 C 347.070312 36.894531 346.808594 36.964844 346.617188 37.109375 C 346.425781 37.253906 346.3125 37.492188 346.28125 37.828125 Z M 348.511719 39.089844 C 348.441406 39.152344 348.351562 39.203125 348.242188 39.238281 C 348.132812 39.273438 348.019531 39.304688 347.894531 39.328125 C 347.769531 39.351562 347.640625 39.371094 347.503906 39.390625 C 347.367188 39.40625 347.230469 39.425781 347.097656 39.449219 C 346.96875 39.472656 346.84375 39.503906 346.71875 39.546875 C 346.59375 39.585938 346.484375 39.640625 346.394531 39.707031 C 346.300781 39.773438 346.226562 39.859375 346.171875 39.964844 C 346.117188 40.070312 346.089844 40.199219 346.089844 40.359375 C 346.089844 40.511719 346.117188 40.640625 346.171875 40.746094 C 346.226562 40.847656 346.304688 40.929688 346.398438 40.992188 C 346.496094 41.050781 346.609375 41.09375 346.734375 41.117188 C 346.863281 41.140625 346.996094 41.152344 347.132812 41.152344 C 347.46875 41.152344 347.726562 41.097656 347.910156 40.984375 C 348.09375 40.871094 348.230469 40.738281 348.320312 40.582031 C 348.40625 40.425781 348.460938 40.269531 348.480469 40.109375 C 348.5 39.949219 348.511719 39.820312 348.511719 39.726562 Z M 351.648438 35.921875 L 351.648438 42.125 L 353.351562 42.125 L 353.351562 38.871094 C 353.351562 38.242188 353.457031 37.785156 353.664062 37.511719 C 353.871094 37.234375 354.207031 37.097656 354.671875 37.097656 C 355.078125 37.097656 355.363281 37.222656 355.523438 37.476562 C 355.683594 37.726562 355.765625 38.109375 355.765625 38.621094 L 355.765625 42.125 L 357.46875 42.125 L 357.46875 38.308594 C 357.46875 37.925781 357.433594 37.574219 357.367188 37.257812 C 357.296875 36.941406 357.179688 36.675781 357.011719 36.453125 C 356.84375 36.234375 356.613281 36.0625 356.320312 35.9375 C 356.03125 35.816406 355.65625 35.753906 355.199219 35.753906 C 354.839844 35.753906 354.488281 35.835938 354.144531 36 C 353.800781 36.164062 353.519531 36.425781 353.304688 36.785156 L 353.269531 36.785156 L 353.269531 35.921875 Z M 360.160156 39.027344 C 360.160156 38.78125 360.183594 38.535156 360.230469 38.296875 C 360.28125 38.058594 360.363281 37.84375 360.476562 37.660156 C 360.59375 37.476562 360.746094 37.328125 360.941406 37.210938 C 361.132812 37.09375 361.371094 37.035156 361.660156 37.035156 C 361.949219 37.035156 362.191406 37.09375 362.386719 37.210938 C 362.582031 37.328125 362.738281 37.476562 362.855469 37.660156 C 362.96875 37.84375 363.050781 38.058594 363.101562 38.296875 C 363.148438 38.535156 363.171875 38.78125 363.171875 39.027344 C 363.171875 39.277344 363.148438 39.519531 363.101562 39.753906 C 363.050781 39.992188 362.96875 40.203125 362.855469 40.390625 C 362.738281 40.578125 362.582031 40.730469 362.386719 40.839844 C 362.191406 40.953125 361.949219 41.007812 361.660156 41.007812 C 361.371094 41.007812 361.132812 40.953125 360.941406 40.839844 C 360.75 40.730469 360.59375 40.578125 360.476562 40.390625 C 360.363281 40.203125 360.28125 39.992188 360.230469 39.753906 C 360.183594 39.519531 360.160156 39.277344 360.160156 39.027344 Z M 358.457031 39.027344 C 358.457031 39.523438 358.53125 39.972656 358.683594 40.371094 C 358.835938 40.773438 359.050781 41.113281 359.332031 41.398438 C 359.613281 41.683594 359.949219 41.902344 360.339844 42.054688 C 360.730469 42.207031 361.171875 42.28125 361.660156 42.28125 C 362.148438 42.28125 362.589844 42.203125 362.984375 42.054688 C 363.382812 41.902344 363.71875 41.683594 364 41.398438 C 364.28125 41.113281 364.496094 40.773438 364.648438 40.371094 C 364.800781 39.972656 364.875 39.523438 364.875 39.027344 C 364.875 38.53125 364.800781 38.082031 364.648438 37.679688 C 364.496094 37.273438 364.28125 36.929688 364 36.648438 C 363.71875 36.363281 363.382812 36.144531 362.984375 35.988281 C 362.589844 35.832031 362.148438 35.753906 361.660156 35.753906 C 361.171875 35.753906 360.730469 35.832031 360.339844 35.988281 C 359.949219 36.144531 359.613281 36.363281 359.332031 36.648438 C 359.050781 36.929688 358.835938 37.273438 358.683594 37.679688 C 358.53125 38.082031 358.457031 38.53125 358.457031 39.027344 Z M 333 30.125 "/>
<path style="fill-rule:nonzero;fill:rgb(96.078431%,82.352941%,28.235294%);fill-opacity:1;stroke-width:2;stroke-linecap:butt;stroke-linejoin:bevel;stroke:rgb(100%,100%,100%);stroke-opacity:1;stroke-miterlimit:10;" d="M 200 55 C 249.53125 55 294.148438 84.949219 312.910156 130.789062 C 331.671875 176.628906 320.855469 229.265625 285.535156 263.992188 L 200 177 Z M 200 55 "/>
<path style="fill-rule:nonzero;fill:rgb(89.019608%,54.509804%,51.764706%);fill-opacity:1;stroke-width:2;stroke-linecap:butt;stroke-linejoin:bevel;stroke:rgb(100%,100%,100%);stroke-opacity:1;stroke-miterlimit:10;" d="M 285.535156 263.992188 C 260.675781 288.433594 226.546875 301.074219 191.765625 298.722656 C 156.980469 296.367188 124.867188 279.246094 103.523438 251.675781 L 200 177 Z M 285.535156 263.992188 "/>
<path style="fill-rule:nonzero;fill:rgb(12.54902%,36.862745%,44.313725%);fill-opacity:1;stroke-width:2;stroke-linecap:butt;stroke-linejoin:bevel;stroke:rgb(100%,100%,100%);stroke-opacity:1;stroke-miterlimit:10;" d="M 103.523438 251.675781 C 62.773438 199.03125 71.753906 123.433594 123.703125 81.800781 L 200 177 Z M 103.523438 251.675781 "/>
<path style="fill-rule:nonzero;fill:rgb(39.215686%,90.980392%,23.529412%);fill-opacity:1;stroke-width:2;stroke-linecap:butt;stroke-linejoin:bevel;stroke:rgb(100%,100%,100%);stroke-opacity:1;stroke-miterlimit:10;" d="M 123.703125 81.800781 C 145.351562 64.453125 172.261719 55 200 55 L 200 177 Z M 123.703125 81.800781 "/>
</g>
</svg>
